<svg width="123" height="51" viewBox="0 0 123 51" fill="none" xmlns="http://www.w3.org/2000/svg">
<path d="M0 49.2275V1.57047H37.167V9.28174H9.03122V21.0223H34.1102V28.7336H9.03122V41.5163H37.5838V49.2275H0Z" fill="white"/>
<path d="M62.7236 50.0612C60.0837 50.0612 57.5596 49.7833 55.1512 49.2275C52.7429 48.6255 50.6125 47.7223 48.7599 46.5182C46.9074 45.2677 45.4485 43.7393 44.3833 41.9331C43.318 40.0805 42.7854 37.9038 42.7854 35.4028C42.7854 35.1249 42.7854 34.847 42.7854 34.5692C42.8317 34.2913 42.8549 34.0829 42.8549 33.9439H51.9556C51.9556 34.0366 51.9324 34.2218 51.8861 34.4997C51.8861 34.7313 51.8861 34.9397 51.8861 35.1249C51.8861 36.6533 52.3261 37.9732 53.2061 39.0848C54.086 40.15 55.3597 40.9837 57.027 41.5857C58.6943 42.1415 60.6626 42.4194 62.932 42.4194C64.4604 42.4194 65.8035 42.3268 66.9613 42.1415C68.1655 41.9562 69.1844 41.7015 70.018 41.3773C70.898 41.0068 71.6159 40.59 72.1716 40.1268C72.7274 39.6174 73.1211 39.0616 73.3526 38.4595C73.6305 37.8575 73.7695 37.2091 73.7695 36.5144C73.7695 35.1712 73.3526 34.0597 72.519 33.1797C71.6853 32.2998 70.5506 31.5588 69.1149 30.9567C67.7255 30.3546 66.1277 29.822 64.3214 29.3588C62.5615 28.8494 60.7321 28.3399 58.8332 27.8305C56.9806 27.321 55.1512 26.719 53.345 26.0242C51.5851 25.2832 49.9872 24.4033 48.5515 23.3843C47.1621 22.3654 46.0506 21.0918 45.2169 19.5634C44.3832 17.9888 43.9664 16.1131 43.9664 13.9363C43.9664 11.7132 44.4296 9.76804 45.3558 8.10074C46.3284 6.43343 47.6715 5.06717 49.3852 4.00195C51.1451 2.89042 53.1829 2.07992 55.4986 1.57047C57.8143 1.0147 60.3384 0.736816 63.0709 0.736816C65.6182 0.736816 68.0034 1.0147 70.2264 1.57047C72.4958 2.07992 74.4873 2.91357 76.2009 4.07142C77.9146 5.18295 79.2577 6.61869 80.2303 8.37862C81.2029 10.0922 81.6891 12.1532 81.6891 14.5615V15.3952H72.7274V14.7005C72.7274 13.3574 72.3106 12.2227 71.4769 11.2964C70.6896 10.3701 69.5549 9.65225 68.0728 9.1428C66.6371 8.63335 64.9467 8.37862 63.0015 8.37862C60.9173 8.37862 59.1342 8.58703 57.6522 9.00386C56.1702 9.37437 55.0355 9.95329 54.2481 10.7406C53.4608 11.4817 53.0671 12.4079 53.0671 13.5195C53.0671 14.6773 53.4839 15.6499 54.3176 16.4372C55.1512 17.2246 56.2628 17.8961 57.6522 18.4519C59.0879 19.0077 60.6858 19.5171 62.4457 19.9803C64.2519 20.4434 66.0813 20.9529 67.9339 21.5086C69.8328 22.0181 71.6622 22.6202 73.4221 23.3149C75.2284 24.0096 76.8262 24.8895 78.2156 25.9548C79.6513 26.9737 80.786 28.2473 81.6197 29.7757C82.4533 31.304 82.8702 33.1334 82.8702 35.2639C82.8702 38.8301 81.9902 41.7015 80.2303 43.8783C78.5166 46.055 76.1315 47.6297 73.0748 48.6023C70.0643 49.5749 66.614 50.0612 62.7236 50.0612Z" fill="white"/>
<path d="M89.5388 49.2275V1.57047H98.57V41.3773H122.468V49.2275H89.5388Z" fill="white"/>
</svg>
