<svg width="20" height="20" viewBox="0 0 20 20" fill="none" xmlns="http://www.w3.org/2000/svg">
<path fill-rule="evenodd" clip-rule="evenodd" d="M11.1924 11.1213C12.364 9.94975 12.364 8.05025 11.1924 6.87868C10.0208 5.70711 8.12132 5.70711 6.94975 6.87868C5.77817 8.05025 5.77817 9.94975 6.94975 11.1213C8.12132 12.2929 10.0208 12.2929 11.1924 11.1213ZM12.6066 12.5355C14.5592 10.5829 14.5592 7.41709 12.6066 5.46447C10.654 3.51184 7.48816 3.51184 5.53553 5.46447C3.58291 7.41709 3.58291 10.5829 5.53553 12.5355C7.48816 14.4882 10.654 14.4882 12.6066 12.5355Z" fill="black"/>
<path fill-rule="evenodd" clip-rule="evenodd" d="M12.2634 10.7782L15.799 14.3137C16.1895 14.7042 16.1895 15.3374 15.799 15.7279C15.4084 16.1184 14.7753 16.1184 14.3847 15.7279L10.8492 12.1924L12.2634 10.7782Z" fill="black"/>
</svg>
